<?xml version="1.0" encoding="UTF-8"?>
<svg id="Layer_1" data-name="Layer 1" xmlns="http://www.w3.org/2000/svg" viewBox="0 0 1500 1500">
  <defs>
    <style>
      .cls-1 {
        letter-spacing: 0em;
      }

      .cls-2 {
        letter-spacing: 0em;
      }

      .cls-3 {
        font-size: 97.27px;
      }

      .cls-3, .cls-4 {
        font-family: Nexa-Heavy, Nexa;
        font-weight: 800;
      }

      .cls-5 {
        letter-spacing: -.01em;
      }

      .cls-6 {
        letter-spacing: -.03em;
      }

      .cls-7 {
        letter-spacing: 0em;
      }

      .cls-8 {
        letter-spacing: -.02em;
      }

      .cls-9 {
        fill: #152033;
      }

      .cls-10 {
        letter-spacing: -.03em;
      }

      .cls-4 {
        fill: #fff;
        font-size: 77.45px;
      }

      .cls-11 {
        letter-spacing: -.01em;
      }

      .cls-12 {
        letter-spacing: -.04em;
      }
    </style>
  </defs>
  <g>
    <polygon class="cls-9" points="440.21 1123.45 428.98 1156.13 411.62 1205.15 521.91 1269.49 580.78 1200.89 667.96 1226.6 685.32 1312.38 808.89 1312.38 825.23 1226.6 1068.3 1162.26 1056.04 1123.45 440.21 1123.45"/>
    <polygon class="cls-9" points="1068.3 1162.26 914.13 1203.06 974.34 1269.49 1081.57 1203.06 1068.3 1162.26"/>
  </g>
  <path class="cls-9" d="M971.28,457.57c-92.94-102.13-331.91-109.28-446.3,0h446.3Z"/>
  <path class="cls-9" d="M1048.89,456.55h-1.4c.48.26.91.62,1.28,1.02h179.86l-27.57-45.96-71.49,30.64c-22.68-25.24-46.83-47.79-72.12-67.63h0s25.14-80.46,25.14-80.46l-111.32-62.3-55.52,63.55c-28.43-10.33-57.46-17.91-86.78-22.72h0s-18.06-82.71-18.06-82.71h-124.6l-19.66,84.37h0c-28.12,5.21-55.97,13.01-83.28,23.41h0s-62.51-65.9-62.51-65.9l-106.21,59.23,25.16,90.67h0c-21.91,18.02-42.96,38.18-62.95,60.48l-80.68-30.64-31.66,45.96h185.1c.19-.3.41-.58.64-.81.08-.08.17-.14.26-.21h-1.15c99.06-135.83,410.55-199.15,599.49,0Z"/>
  <path class="cls-9" d="M507.11,952.89v41.36s131.47,0,131.47,0c2.69,0,4.88-2.18,4.89-4.87l.66-153.26c-8.34-24.25-30.75-15.42-36.34,3.92-24.52,84.93-61.62,108.05-100.68,112.84Z"/>
  <path class="cls-9" d="M706.26,994.26s-26.04-.51-25.53-20.94,25.53-19.4,25.53-19.4c0,0,16.34-4.6,18.89-17.36s0-430.47,0-430.47h156.26v424.85s-1.02,19.91,21.96,22.47,22.98,19.91,22.98,19.91c0,0,2.04,21.96-27.57,20.94s-192.51,0-192.51,0Z"/>
  <path class="cls-9" d="M696.04,506.09v43.4s-36.77,20.43-45.96,74.55-13.28,45.45-13.28,45.45c0,0,1.02,4.09-13.28,6.13s-20.43-17.36-20.43-17.36v-152.17h92.94Z"/>
  <path class="cls-9" d="M912.55,506.09v42.89s43.4,34.21,46.47,79.15,20.94,47.64,20.94,47.64c0,0,24.51,6.49,25.02-25.17s0-144.51,0-144.51h-92.43Z"/>
  <path class="cls-9" d="M1242.43,497.91v36.77s59.74,19.15,75.83,52.85,21.45,34.47,26.81,66.64,39.06,16.85,39.83-12.26,0-118.72,0-118.72c0,0-3.83-39.57-29.87-17.11s-28.34,14.04-28.34,14.04c0,0-52.09-27.57-84.26-22.21Z"/>
  <path class="cls-9" d="M1292.98,683.28c-28.34-13.79-111.83-29.87-123.32-82.72-11.49-52.85,42.13-62.04,42.13-62.04v-41.29c-231.32,26.12-150.13,229.71-150.13,229.71,0,0,26.81,61.28,106.39,89.62,79.58,28.34,96.59,52.09,96.59,52.09,0,0,1.21.79,3.39,2.11,7.27,7.51,17.18,22.51,11.93,45.37-7.92,34.47-54.55,47.49-54.55,47.49v39.06s50.72-5.36,108.93-36.77c38.59-20.82,55.97-66.21,63.31-94.44,2.49-6.68,4.17-14.7,4.86-24.28,7.66-106.47-81.19-150.13-109.53-163.91Z"/>
  <path class="cls-9" d="M1192.64,1001.93v-40.09s-60.57-20.88-76.88-57.63c-16.31-36.75-21.74-37.58-27.18-72.66-5.44-35.08-39.61-18.37-40.38,13.36-.78,31.74,0,129.45,0,129.45,0,0,3.88,43.15,30.29,18.65,26.4-24.5,28.73-15.31,28.73-15.31,0,0,52.81,30.07,85.42,24.22Z"/>
  <path class="cls-9" d="M91.96,506.09v488.2h161.36v-488.2H91.96ZM181.83,560.17h57.19v53.66h-57.19v-53.66ZM239.28,693.49v53.66h-57.19v-53.66h57.19ZM110.85,560.17h57.19v53.66h-57.19v-53.66ZM168.3,693.49v53.66h-57.19v-53.66h57.19ZM110.85,626.83h57.19v53.66h-57.19v-53.66ZM111.11,760.15h57.19v53.66h-57.19v-53.66ZM168.81,947.12h-57.19v-53.66h57.19v53.66ZM168.81,880.47h-57.19v-53.66h57.19v53.66ZM181.83,626.83h57.19v53.66h-57.19v-53.66ZM182.09,760.15h57.19v53.66h-57.19v-53.66ZM239.79,947.12h-57.19v-53.66h57.19v53.66ZM239.79,880.47h-57.19v-53.66h57.19v53.66Z"/>
  <path class="cls-9" d="M317.15,505.85v488.2h161.36v-488.2h-161.36ZM407.02,559.94h57.19v53.66h-57.19v-53.66ZM464.47,693.25v53.66h-57.19v-53.66h57.19ZM336.04,559.94h57.19v53.66h-57.19v-53.66ZM393.49,693.25v53.66h-57.19v-53.66h57.19ZM336.04,626.59h57.19v53.66h-57.19v-53.66ZM336.3,759.91h57.19v53.66h-57.19v-53.66ZM394,946.89h-57.19v-53.66h57.19v53.66ZM394,880.23h-57.19v-53.66h57.19v53.66ZM407.02,626.59h57.19v53.66h-57.19v-53.66ZM407.28,759.91h57.19v53.66h-57.19v-53.66ZM464.98,946.89h-57.19v-53.66h57.19v53.66ZM464.98,880.23h-57.19v-53.66h57.19v53.66Z"/>
  <text class="cls-3" transform="translate(84.81 1092.76) scale(.92 1)"><tspan x="0" y="0">INSPIRE </tspan><tspan class="cls-5" x="427.19" y="0">L</tspan><tspan class="cls-7" x="485.35" y="0">UXU</tspan><tspan class="cls-12" x="701.86" y="0">R</tspan><tspan class="cls-10" x="768.3" y="0">Y</tspan><tspan class="cls-8" x="834.83" y="0"> </tspan><tspan x="855.16" y="0">T</tspan><tspan class="cls-2" x="915.66" y="0">E</tspan><tspan x="979.75" y="0">CHNICA</tspan><tspan class="cls-1" x="1375.23" y="0">L</tspan></text>
  <text class="cls-4" transform="translate(450.21 1190.3)"><tspan x="0" y="0">SE</tspan><tspan class="cls-11" x="102.62" y="0">R</tspan><tspan x="157.54" y="0">VICES L.L</tspan><tspan class="cls-6" x="529.62" y="0">.</tspan><tspan x="547.82" y="0">C</tspan></text>
</svg>